<svg width="168" height="128" xmlns="http://www.w3.org/2000/svg" xmlns:xlink="http://www.w3.org/1999/xlink"><defs><filter x="-3.7%" y="-4.2%" width="107.4%" height="110.4%" filterUnits="objectBoundingBox" id="a"><feOffset dy="1" in="SourceAlpha" result="shadowOffsetOuter1"/><feGaussianBlur stdDeviation="1.5" in="shadowOffsetOuter1" result="shadowBlurOuter1"/><feColorMatrix values="0 0 0 0 0 0 0 0 0 0 0 0 0 0 0 0 0 0 0.08 0" in="shadowBlurOuter1"/></filter><filter x="-14.3%" y="-37.8%" width="128.6%" height="186.5%" filterUnits="objectBoundingBox" id="c"><feOffset dy="2" in="SourceAlpha" result="shadowOffsetOuter1"/><feGaussianBlur stdDeviation="5" in="shadowOffsetOuter1" result="shadowBlurOuter1"/><feColorMatrix values="0 0 0 0 0 0 0 0 0 0 0 0 0 0 0 0 0 0 0.1 0" in="shadowBlurOuter1"/></filter><filter id="e"><feColorMatrix in="SourceGraphic" values="0 0 0 0 0.000000 0 0 0 0 0.670588 0 0 0 0 0.878431 0 0 0 1.000000 0"/></filter><filter x="-34.6%" y="-45.7%" width="169.2%" height="217.4%" filterUnits="objectBoundingBox" id="f"><feOffset dy="3" in="SourceAlpha" result="shadowOffsetOuter1"/><feGaussianBlur stdDeviation="4" in="shadowOffsetOuter1" result="shadowBlurOuter1"/><feColorMatrix values="0 0 0 0 0 0 0 0 0 0 0 0 0 0 0 0 0 0 0.08 0" in="shadowBlurOuter1" result="shadowMatrixOuter1"/><feOffset dy=".5" in="SourceAlpha" result="shadowOffsetOuter2"/><feGaussianBlur stdDeviation=".75" in="shadowOffsetOuter2" result="shadowBlurOuter2"/><feColorMatrix values="0 0 0 0 0 0 0 0 0 0 0 0 0 0 0 0 0 0 0.08 0" in="shadowBlurOuter2" result="shadowMatrixOuter2"/><feOffset dx="3" dy="3" in="SourceAlpha" result="shadowOffsetOuter3"/><feColorMatrix values="0 0 0 0 0 0 0 0 0 0 0 0 0 0 0 0 0 0 0.04 0" in="shadowOffsetOuter3" result="shadowMatrixOuter3"/><feMerge><feMergeNode in="shadowMatrixOuter1"/><feMergeNode in="shadowMatrixOuter2"/><feMergeNode in="shadowMatrixOuter3"/></feMerge></filter><circle id="h" cx="4.5" cy="4.5" r="4.5"/><circle id="j" cx="4.5" cy="4.5" r="4.5"/><circle id="l" cx="4.5" cy="4.5" r="4.5"/><path d="M2 0h108a2 2 0 012 2v33a2 2 0 01-2 2H2a2 2 0 01-2-2V2a2 2 0 012-2z" id="d"/><path d="M2 0h35a2 2 0 012 2v19a2 2 0 01-2 2H2a2 2 0 01-2-2V2a2 2 0 012-2z" id="g"/><rect id="b" x="0" y="0" width="136" height="96" rx="3"/></defs><g fill="none" fill-rule="evenodd"><g transform="translate(16 16)"><use fill="#000" filter="url(#a)" xlink:href="#b"/><use fill="#F2F4F6" xlink:href="#b"/></g><g transform="translate(16 16)"><path d="M3 0h130a3 3 0 013 3v6H0V3a3 3 0 013-3z" fill="#606C80" opacity=".2"/><circle fill="#FFF" opacity=".747" cx="5.5" cy="4.5" r="1.5"/><circle fill="#FFF" opacity=".747" cx="11.5" cy="4.5" r="1.5"/><circle fill="#FFF" opacity=".747" cx="17.5" cy="4.5" r="1.5"/></g><g transform="translate(23 30)"><rect fill="#FFF" width="122" height="78" rx="2"/><g transform="translate(5 36)"><use fill="#000" filter="url(#c)" xlink:href="#d"/><use fill="#FFF" xlink:href="#d"/><rect fill="#E7EBF2" x="12" y="5" width="64" height="3" rx="1"/><rect fill="#1F85F4" fill-rule="nonzero" opacity=".604" x="101" y="5" width="8" height="3" rx="1"/><rect fill="#1F85F4" fill-rule="nonzero" opacity=".604" x="101" y="13" width="8" height="3" rx="1"/><rect fill="#1F85F4" fill-rule="nonzero" opacity=".604" x="101" y="21" width="8" height="3" rx="1"/><rect fill="#1F85F4" fill-rule="nonzero" opacity=".604" x="101" y="29" width="8" height="3" rx="1"/><rect fill="#CFD8E5" fill-rule="nonzero" opacity=".5" x="91" y="5" width="6" height="3" rx="1"/><rect fill="#CFD8E5" fill-rule="nonzero" opacity=".5" x="91" y="13" width="6" height="3" rx="1"/><rect fill="#CFD8E5" fill-rule="nonzero" opacity=".5" x="91" y="21" width="6" height="3" rx="1"/><rect fill="#CFD8E5" fill-rule="nonzero" opacity=".5" x="91" y="29" width="6" height="3" rx="1"/><rect fill="#E7EBF2" x="12" y="13" width="64" height="3" rx="1"/><rect fill="#E7EBF2" x="12" y="21" width="64" height="3" rx="1"/><rect fill="#E7EBF2" x="12" y="29" width="64" height="3" rx="1"/><circle cx="2.5" cy="2.5" r="2.5" transform="translate(4 4)" fill="#F24C3D"/><circle cx="2.5" cy="2.5" r="2.5" transform="translate(4 12)" fill="#FFAF58"/><circle cx="2.5" cy="2.5" r="2.5" transform="translate(4 20)" fill="#51C48A"/><g transform="translate(4 28)" fill="#5881FC"><circle cx="2.5" cy="2.5" r="2.5"/></g></g><rect fill="#CFD8E5" fill-rule="nonzero" opacity=".7" x="5" y="28" width="16" height="3" rx="1"/><g transform="translate(5 5)"><rect fill="#09B1E5" fill-rule="nonzero" opacity=".146" width="12" height="12" rx="1.5"/><g transform="translate(2 2)" filter="url(#e)"><path d="M5.238.075a.05.05 0 01.012.032V.75H6.5a.5.5 0 01.5.5v3.836a1.5 1.5 0 11-1 0V1.75h-.75v.643a.05.05 0 01-.082.039L3.796 1.288a.05.05 0 01-.006-.07L5.168.068a.05.05 0 01.07.007zM2 0a1.5 1.5 0 01.5 2.914v2.172a1.5 1.5 0 11-1 0V2.914A1.5 1.5 0 012 0zm4.5 6a.5.5 0 100 1 .5.5 0 000-1zM2 6a.5.5 0 100 1 .5.5 0 000-1zm0-5a.5.5 0 100 1 .5.5 0 000-1z" fill="#202D40" fill-rule="nonzero"/></g></g><path fill="#F5F7FA" fill-rule="nonzero" d="M5 22h112v1H5z"/><rect fill="#CFD8E5" fill-rule="nonzero" opacity=".7" x="22" y="5" width="24" height="4" rx="1"/><path d="M23 13h23v4H23a1 1 0 01-1-1v-2a1 1 0 011-1z" fill="#39C27D" opacity=".694"/><path d="M78 13h15a1 1 0 011 1v2a1 1 0 01-1 1H78v-4z" fill="#1F85F4" opacity=".5"/><path fill="#8FC2F9" d="M47 13h30v4H47z"/></g><g transform="translate(122 26)"><use fill="#000" filter="url(#f)" xlink:href="#g"/><use fill="#FFF" xlink:href="#g"/><g transform="translate(23 4)"><mask id="i" fill="#fff"><use xlink:href="#h"/></mask><circle stroke="#FFF" cx="4.5" cy="4.5" r="5"/><g mask="url(#i)" fill="#FFF" fill-rule="nonzero" opacity=".7"><path d="M4.5 6.375c-.786 0-1.429-.675-1.429-1.5V4.5c0-.825.643-1.5 1.429-1.5s1.429.675 1.429 1.5v.375c0 .825-.643 1.5-1.429 1.5zM5.214 7.125H3.786C2.786 7.125 2 7.95 2 9h5c0-1.05-.786-1.875-1.786-1.875z"/></g></g><g transform="translate(15 4)"><mask id="k" fill="#fff"><use xlink:href="#j"/></mask><circle stroke="#FFF" cx="4.5" cy="4.5" r="5"/><g mask="url(#k)" fill="#FFF" fill-rule="nonzero" opacity=".7"><path d="M4.5 6.375c-.786 0-1.429-.675-1.429-1.5V4.5c0-.825.643-1.5 1.429-1.5s1.429.675 1.429 1.5v.375c0 .825-.643 1.5-1.429 1.5zM5.214 7.125H3.786C2.786 7.125 2 7.95 2 9h5c0-1.05-.786-1.875-1.786-1.875z"/></g></g><g transform="translate(7 4)"><mask id="m" fill="#fff"><use xlink:href="#l"/></mask><circle stroke="#FFF" cx="4.5" cy="4.5" r="5"/><g mask="url(#m)" fill="#FFF" fill-rule="nonzero" opacity=".7"><path d="M4.5 6.375c-.786 0-1.429-.675-1.429-1.5V4.5c0-.825.643-1.5 1.429-1.5s1.429.675 1.429 1.5v.375c0 .825-.643 1.5-1.429 1.5zM5.214 7.125H3.786C2.786 7.125 2 7.95 2 9h5c0-1.05-.786-1.875-1.786-1.875z"/></g></g><g transform="translate(29 9)"><circle fill="#32BE77" cx="2.5" cy="2.5" r="2.5"/><path d="M.625 4.375h3.75V.625H.625z"/><path d="M4.096 1.363L1.92 3.78a.02.02 0 01-.032 0L.891 2.533A.02.02 0 01.908 2.5h.546a.02.02 0 01.016.008l.455.568L3.49 1.335a.02.02 0 01.016-.007h.574a.02.02 0 01.015.035z" fill="#FFF" fill-rule="nonzero"/></g><rect fill="#CFD8E5" fill-rule="nonzero" opacity=".7" x="7" y="17" width="16" height="2" rx="1"/></g></g></svg>