<svg width="168" height="128" xmlns="http://www.w3.org/2000/svg" xmlns:xlink="http://www.w3.org/1999/xlink"><defs><filter x="-3.7%" y="-4.2%" width="107.4%" height="110.4%" filterUnits="objectBoundingBox" id="b"><feOffset dy="1" in="SourceAlpha" result="shadowOffsetOuter1"/><feGaussianBlur stdDeviation="1.5" in="shadowOffsetOuter1" result="shadowBlurOuter1"/><feColorMatrix values="0 0 0 0 0 0 0 0 0 0 0 0 0 0 0 0 0 0 0.08 0" in="shadowBlurOuter1"/></filter><filter x="-70%" y="-50%" width="240%" height="240%" filterUnits="objectBoundingBox" id="d"><feOffset dy="2" in="SourceAlpha" result="shadowOffsetOuter1"/><feGaussianBlur stdDeviation="2" in="shadowOffsetOuter1" result="shadowBlurOuter1"/><feColorMatrix values="0 0 0 0 0.196078431 0 0 0 0 0.745098039 0 0 0 0 0.466666667 0 0 0 0.4 0" in="shadowBlurOuter1"/></filter><filter id="f"><feColorMatrix in="SourceGraphic" values="0 0 0 0 0.000000 0 0 0 0 0.439216 0 0 0 0 1.000000 0 0 0 1.000000 0"/></filter><filter x="-70%" y="-50%" width="240%" height="240%" filterUnits="objectBoundingBox" id="g"><feOffset dy="2" in="SourceAlpha" result="shadowOffsetOuter1"/><feGaussianBlur stdDeviation="2" in="shadowOffsetOuter1" result="shadowBlurOuter1"/><feColorMatrix values="0 0 0 0 0.196078431 0 0 0 0 0.745098039 0 0 0 0 0.466666667 0 0 0 0.4 0" in="shadowBlurOuter1"/></filter><filter id="i"><feColorMatrix in="SourceGraphic" values="0 0 0 0 0.000000 0 0 0 0 0.439216 0 0 0 0 1.000000 0 0 0 1.000000 0"/></filter><filter id="k"><feColorMatrix in="SourceGraphic" values="0 0 0 0 0.000000 0 0 0 0 0.439216 0 0 0 0 1.000000 0 0 0 1.000000 0"/></filter><circle id="e" cx="5" cy="5" r="5"/><circle id="h" cx="5" cy="5" r="5"/><rect id="c" x="0" y="0" width="136" height="96" rx="3"/><path d="M2 0h108a2 2 0 012 2v14a2 2 0 01-2 2H2a2 2 0 01-2-2V2a2 2 0 012-2z" id="a"/><mask id="j" maskContentUnits="userSpaceOnUse" maskUnits="objectBoundingBox" x="0" y="0" width="112" height="18" fill="#fff"><use xlink:href="#a"/></mask></defs><g fill="none" fill-rule="evenodd"><g transform="translate(16 16)"><use fill="#000" filter="url(#b)" xlink:href="#c"/><use fill="#F2F4F6" xlink:href="#c"/></g><g transform="translate(16 16)"><path d="M3 0h130a3 3 0 013 3v6H0V3a3 3 0 013-3z" fill="#606C80" opacity=".2"/><circle fill="#FFF" opacity=".747" cx="5.5" cy="4.5" r="1.5"/><circle fill="#FFF" opacity=".747" cx="11.5" cy="4.5" r="1.5"/><circle fill="#FFF" opacity=".747" cx="17.5" cy="4.5" r="1.5"/></g><g transform="translate(23 30)"><rect fill="#FFF" width="122" height="78" rx="2"/><path d="M7 11h108a2 2 0 012 2v14a2 2 0 01-2 2H7a2 2 0 01-2-2V13a2 2 0 012-2z" fill="#F4F6F8"/><g transform="translate(103 15)"><use fill="#000" filter="url(#d)" xlink:href="#e"/><use fill="#32BE77" xlink:href="#e"/></g><path d="M104.25 23.75h7.5v-7.5h-7.5z"/><path d="M111.193 17.726l-4.353 4.837a.042.042 0 01-.064-.002l-1.993-2.493a.042.042 0 01.032-.068h1.093c.013 0 .025.006.033.016l.908 1.135 3.133-3.481a.042.042 0 01.031-.014h1.149a.042.042 0 01.03.07z" fill="#FFF" fill-rule="nonzero"/><path d="M26 16h63a1 1 0 011 1v1a1 1 0 01-1 1H26a1 1 0 01-1-1v-1a1 1 0 011-1z" fill="#CFD8E5" fill-rule="nonzero"/><path d="M26 22h47a1 1 0 010 2H26a1 1 0 010-2z" fill="#CFD8E5" fill-rule="nonzero" opacity=".5"/><g transform="translate(8 14)"><rect fill="#1A78FF" fill-rule="nonzero" opacity=".15" width="12" height="12" rx="1.5"/><g transform="translate(2 2)" filter="url(#f)"><path d="M5.59 1a.05.05 0 01.046.068L3.412 7H2.344l2.237-5.968A.05.05 0 014.628 1h.961zM2.488 2.073a.05.05 0 01.011.031v1.05a.05.05 0 01-.018.038l-.945.81.945.81a.05.05 0 01.018.038v1.046a.05.05 0 01-.081.04L.049 4.04a.05.05 0 01-.008-.07l.008-.008 2.37-1.898a.05.05 0 01.07.008zm3.022 0a.05.05 0 01.053-.017l.017.01L7.96 3.97a.05.05 0 01.005.055l-.013.015-2.37 1.894a.05.05 0 01-.077-.02L5.5 5.896V4.85c0-.01.003-.019.009-.027l.009-.01.945-.81-.945-.811a.05.05 0 01-.015-.024L5.5 3.154v-1.05a.05.05 0 01.011-.031z" fill="#202D40" fill-rule="nonzero"/></g></g><rect fill="#CFD8E5" fill-rule="nonzero" opacity=".7" x="5" y="5" width="20" height="4" rx="1"/><g><path d="M7 33h108a2 2 0 012 2v14a2 2 0 01-2 2H7a2 2 0 01-2-2V35a2 2 0 012-2z" fill="#F4F6F8"/><g transform="translate(103 37)"><use fill="#000" filter="url(#g)" xlink:href="#h"/><use fill="#32BE77" xlink:href="#h"/></g><path d="M104.25 45.75h7.5v-7.5h-7.5z"/><path d="M111.193 39.726l-4.353 4.837a.042.042 0 01-.064-.002l-1.993-2.493a.042.042 0 01.032-.068h1.093c.013 0 .025.006.033.016l.908 1.135 3.133-3.481a.042.042 0 01.031-.014h1.149a.042.042 0 01.03.07z" fill="#FFF" fill-rule="nonzero"/><path d="M26 38h63a1 1 0 011 1v1a1 1 0 01-1 1H26a1 1 0 01-1-1v-1a1 1 0 011-1z" fill="#CFD8E5" fill-rule="nonzero"/><path d="M26 44h47a1 1 0 010 2H26a1 1 0 010-2z" fill="#CFD8E5" fill-rule="nonzero" opacity=".5"/><g transform="translate(8 36)"><rect fill="#1A78FF" fill-rule="nonzero" opacity=".15" width="12" height="12" rx="1.5"/><g transform="translate(2 2)" filter="url(#i)"><path d="M5.59 1a.05.05 0 01.046.068L3.412 7H2.344l2.237-5.968A.05.05 0 014.628 1h.961zM2.488 2.073a.05.05 0 01.011.031v1.05a.05.05 0 01-.018.038l-.945.81.945.81a.05.05 0 01.018.038v1.046a.05.05 0 01-.081.04L.049 4.04a.05.05 0 01-.008-.07l.008-.008 2.37-1.898a.05.05 0 01.07.008zm3.022 0a.05.05 0 01.053-.017l.017.01L7.96 3.97a.05.05 0 01.005.055l-.013.015-2.37 1.894a.05.05 0 01-.077-.02L5.5 5.896V4.85c0-.01.003-.019.009-.027l.009-.01.945-.81-.945-.811a.05.05 0 01-.015-.024L5.5 3.154v-1.05a.05.05 0 01.011-.031z" fill="#202D40" fill-rule="nonzero"/></g></g></g><g transform="translate(5 55)"><use stroke="#DFE5F0" mask="url(#j)" stroke-width="2" fill-opacity="0" fill="#F1F3F5" stroke-dasharray="2" xlink:href="#a"/><g opacity=".6"><path d="M21 5h63a1 1 0 011 1v1a1 1 0 01-1 1H21a1 1 0 01-1-1V6a1 1 0 011-1z" fill="#CFD8E5" fill-rule="nonzero"/><path d="M21 11h47a1 1 0 010 2H21a1 1 0 010-2z" fill="#CFD8E5" fill-rule="nonzero" opacity=".5"/><g transform="translate(3 3)"><rect fill="#1A78FF" fill-rule="nonzero" opacity=".15" width="12" height="12" rx="1.5"/><g transform="translate(2 2)" filter="url(#k)"><path d="M5.59 1a.05.05 0 01.046.068L3.412 7H2.344l2.237-5.968A.05.05 0 014.628 1h.961zM2.488 2.073a.05.05 0 01.011.031v1.05a.05.05 0 01-.018.038l-.945.81.945.81a.05.05 0 01.018.038v1.046a.05.05 0 01-.081.04L.049 4.04a.05.05 0 01-.008-.07l.008-.008 2.37-1.898a.05.05 0 01.07.008zm3.022 0a.05.05 0 01.053-.017l.017.01L7.96 3.97a.05.05 0 01.005.055l-.013.015-2.37 1.894a.05.05 0 01-.077-.02L5.5 5.896V4.85c0-.01.003-.019.009-.027l.009-.01.945-.81-.945-.811a.05.05 0 01-.015-.024L5.5 3.154v-1.05a.05.05 0 01.011-.031z" fill="#202D40" fill-rule="nonzero"/></g></g></g></g></g></g></svg>